<svg width="16" height="16" viewBox="0 0 16 16" fill="none" xmlns="http://www.w3.org/2000/svg">
<g clip-path="url(#clip0_102_76)">
<path d="M8.00004 1.66667L9.89534 6.06286L14.6667 6.5049L11.0667 9.66394L12.1203 14.3333L8.00004 11.8895L3.87981 14.3333L4.93337 9.66394L1.33337 6.5049L6.10474 6.06286L8.00004 1.66667Z" fill="#0867D6"/>
<path d="M8.00004 1.66667L9.89534 6.06286L14.6667 6.5049L11.0667 9.66394L12.1203 14.3333L8.00004 11.8895L3.87981 14.3333L4.93337 9.66394L1.33337 6.5049L6.10474 6.06286L8.00004 1.66667Z" fill="#EEEE36"/>
<path d="M8.00004 1.66667L9.89534 6.06286L14.6667 6.5049L11.0667 9.66394L12.1203 14.3333L8.00004 11.8895L3.87981 14.3333L4.93337 9.66394L1.33337 6.5049L6.10474 6.06286L8.00004 1.66667Z" fill="#F1DA09"/>
<path d="M8.00004 1.66667L9.89534 6.06286L14.6667 6.5049L11.0667 9.66394L12.1203 14.3333L8.00004 11.8895L3.87981 14.3333L4.93337 9.66394L1.33337 6.5049L6.10474 6.06286L8.00004 1.66667Z" stroke="#0867D6" stroke-width="2" stroke-linejoin="round"/>
<path d="M8.00004 1.66667L9.89534 6.06286L14.6667 6.5049L11.0667 9.66394L12.1203 14.3333L8.00004 11.8895L3.87981 14.3333L4.93337 9.66394L1.33337 6.5049L6.10474 6.06286L8.00004 1.66667Z" stroke="#EEEE36" stroke-width="2" stroke-linejoin="round"/>
<path d="M8.00004 1.66667L9.89534 6.06286L14.6667 6.5049L11.0667 9.66394L12.1203 14.3333L8.00004 11.8895L3.87981 14.3333L4.93337 9.66394L1.33337 6.5049L6.10474 6.06286L8.00004 1.66667Z" stroke="#F1DA09" stroke-width="2" stroke-linejoin="round"/>
</g>
<defs>
<clipPath id="clip0_102_76">
<rect width="16" height="16" fill="white"/>
</clipPath>
</defs>
</svg>
