<?xml version="1.0" standalone="no"?>
<!DOCTYPE svg PUBLIC "-//W3C//DTD SVG 20010904//EN"
 "http://www.w3.org/TR/2001/REC-SVG-20010904/DTD/svg10.dtd">
<svg version="1.0" xmlns="http://www.w3.org/2000/svg"
 width="296.000000pt" height="264.000000pt" viewBox="0 0 296.000000 264.000000"
 preserveAspectRatio="xMidYMid meet">
<metadata>
Created by potrace 1.16, written by Peter Selinger 2001-2019
</metadata>
<g transform="translate(0.000000,264.000000) scale(0.100000,-0.100000)"
fill="#000000" stroke="none">
<path d="M0 1325 l0 -1315 1480 0 1480 0 0 1315 0 1315 -1480 0 -1480 0 0
-1315z m1660 861 c23 -15 64 -34 91 -42 26 -8 61 -26 78 -40 16 -13 55 -33 87
-44 32 -11 65 -27 74 -35 9 -8 43 -24 75 -35 32 -11 72 -31 89 -43 17 -13 53
-31 79 -40 62 -21 158 -107 174 -156 14 -43 17 -675 4 -733 -11 -45 -78 -116
-141 -148 -25 -12 -54 -30 -65 -40 -11 -10 -45 -25 -75 -35 -30 -9 -71 -28
-90 -41 -19 -13 -62 -33 -94 -44 -33 -11 -67 -26 -75 -34 -9 -8 -45 -28 -81
-45 -36 -17 -78 -39 -94 -48 -49 -27 -175 -38 -277 -26 -73 10 -95 17 -126 41
-21 16 -56 35 -78 42 -22 7 -60 25 -85 40 -25 15 -63 33 -85 40 -22 7 -53 23
-70 35 -16 12 -55 30 -86 38 -31 9 -63 24 -70 33 -8 10 -41 29 -74 44 -65 30
-106 67 -127 115 -18 43 -25 679 -7 752 10 45 21 60 70 103 32 27 79 59 104
70 26 11 59 29 74 39 14 10 50 26 78 34 29 9 68 27 85 40 18 14 53 31 78 38
25 6 61 24 80 39 19 15 53 33 75 40 22 7 69 29 105 47 63 34 67 35 161 31 85
-3 101 -7 139 -32z"/>
<path d="M1445 2063 c-111 -21 -137 -31 -133 -56 3 -20 8 -21 148 -19 160 2
219 -5 230 -28 4 -8 15 -29 24 -47 27 -53 22 -67 -46 -107 -35 -20 -83 -41
-107 -47 -66 -15 -145 -2 -172 27 -13 13 -40 29 -61 34 -36 10 -38 13 -37 48
0 20 4 46 8 57 13 31 -5 55 -42 55 -18 0 -68 -17 -112 -39 -44 -21 -97 -46
-117 -55 -21 -9 -38 -22 -38 -30 0 -21 -25 -32 -88 -41 -47 -6 -60 -14 -110
-63 l-57 -55 -3 -121 c-5 -170 -1 -183 79 -224 35 -19 71 -40 80 -48 8 -8 37
-20 62 -28 26 -8 69 -28 95 -44 26 -17 65 -35 88 -41 22 -6 49 -20 59 -31 10
-11 48 -29 85 -40 37 -11 85 -34 106 -51 38 -31 41 -31 131 -27 79 3 96 7 117
27 13 13 53 33 89 46 35 13 81 35 102 49 20 14 52 28 69 32 18 3 48 19 67 35
20 17 56 34 88 41 30 6 66 21 80 33 14 12 47 34 74 49 63 36 77 71 77 191 0
107 -16 157 -71 217 -28 31 -45 39 -96 50 -97 19 -114 -16 -33 -67 22 -14 40
-33 40 -43 0 -31 -67 -100 -108 -112 -20 -5 -94 -10 -163 -10 -141 0 -146 -2
-127 -63 6 -19 8 -42 5 -49 -3 -8 -48 -36 -101 -63 -85 -42 -100 -47 -138 -41
-24 4 -60 18 -80 31 -20 13 -48 27 -61 31 -43 10 -60 38 -55 88 3 24 3 49 -1
54 -3 6 -68 12 -146 14 -172 4 -213 19 -231 83 -14 50 -4 70 42 90 19 8 37 22
41 32 10 27 23 33 83 33 115 0 160 -14 217 -68 l52 -49 -25 -34 c-14 -19 -23
-43 -22 -54 3 -19 10 -20 196 -19 205 2 230 7 198 43 -9 10 -19 34 -23 54 -5
32 -3 37 28 52 19 10 43 29 54 42 20 24 29 26 145 32 125 6 125 6 125 31 0 22
-8 28 -62 46 -34 12 -83 36 -109 53 -31 20 -60 31 -83 31 -40 0 -55 7 -64 32
-6 16 -57 34 -152 55 -26 6 -64 4 -110 -4z"/>
<path d="M740 1224 c-6 -14 -10 -54 -10 -90 0 -62 2 -66 43 -111 23 -25 62
-55 87 -66 25 -11 56 -28 69 -39 13 -10 49 -25 78 -34 30 -9 69 -28 86 -44 18
-15 57 -35 88 -43 31 -9 68 -26 82 -37 14 -12 52 -30 83 -40 31 -11 63 -25 70
-31 7 -6 34 -17 60 -25 45 -13 48 -13 98 15 28 16 77 36 108 45 31 9 69 27 85
40 15 13 53 31 84 39 30 9 64 26 74 37 10 11 43 29 73 40 30 12 67 29 81 39
14 10 44 24 66 31 55 16 67 27 101 89 23 43 29 67 29 115 l0 61 -40 -3 c-79
-5 -169 -33 -202 -63 -18 -15 -52 -33 -75 -39 -24 -6 -61 -24 -83 -39 -22 -16
-58 -34 -80 -41 -22 -7 -52 -23 -67 -35 -38 -32 -118 -49 -223 -48 -104 0
-168 15 -207 48 -15 13 -51 30 -80 39 -29 8 -69 27 -88 41 -19 14 -51 30 -72
35 -20 6 -51 22 -67 36 -17 14 -60 33 -97 43 -36 11 -79 28 -95 40 -37 27 -47
26 -59 -5z"/>
</g>
</svg>
